<svg xmlns="http://www.w3.org/2000/svg" xmlns:xlink="http://www.w3.org/1999/xlink" viewBox="0 0 945.75 663.36"><defs><clipPath id="clip-path"><path d="M83,165.52s-16.8-14.55,22.38-7.83,129.3,19.59,237.88,115.86c110.27,68.28,200.38,85.63,242.92,70s95.15-30.22,97.39-34.7c.56-9,0-13.43,5-12.31s6.16,1.68,20.15-.56,54.85-14.56,84.52,2.24c4.48,3.35,18.47-.56,19.59,7.27s11.75,33.11-54.29,43.42c-24.63,5.28-38.07,23.19-42.54,29.34-10.08,14-96.75,116.89-131.54,117.55-15.67.29-24.06-11.76-5.59-24.07s25.18-17.91,11.75-15.67c-14,2.23-119.22,22.38-208.78-45.9-15.11-1.68-79.47-25.75-102.42-45.9-31.35-2.24-66.61-16.79-56.53-51.49,5-4.48,4.47-10.08,26.86,3.36s37.5,16.14,39.18,9.75c-7.27-19.27-57.09-88.67-85.08-101.55S86.23,172.54,83,165.52Z" style="fill:none"/></clipPath><clipPath id="clip-path-2"><rect x="338.57" y="266.77" width="332.45" height="108.53" style="fill:none"/></clipPath></defs><g id="Logo-CMJN"><g style="clip-path:url(#clip-path)"><polygon points="764.48 300.82 779.98 311.28 748.18 317.88 764.48 300.82" style="fill:#00497f"/><polygon points="794.93 307.13 814.13 327 814.13 300.41 794.93 307.13" style="fill:#00497f;stroke:#00497f;stroke-miterlimit:10"/><polygon points="708.17 318.14 777.78 322.91 744.24 353.77 708.17 318.14" style="fill:#00a9e6;opacity:0.30000000000000004"/><polygon points="629.79 475.75 697.97 404.36 630.64 375.31 629.79 475.75" style="fill:#00a9e6;stroke:#00a9e6;stroke-linecap:round;stroke-linejoin:round;stroke-width:2px;opacity:0.30000000000000004"/><polygon points="316.31 392.83 320.85 352.19 283.73 377.53 316.31 392.83" style="fill:#00a9e6;opacity:0.30000000000000004"/><polygon points="562.73 482.34 630.64 375.31 630.64 482.18 580.57 500.62 562.73 482.34" style="fill:#00a9e6;stroke:#00a9e6;stroke-linecap:round;stroke-linejoin:round;stroke-width:2px"/><polygon points="599.92 454.87 583.91 499.26 591.75 495.76 614.7 484.56 599.92 454.87" style="fill:#00497f;stroke:#00497f;stroke-miterlimit:10"/><polygon points="519.77 459.89 584.62 375.31 571.88 468.88 519.77 459.89" style="fill:#00a9e6;stroke:#00a9e6;stroke-linecap:round;stroke-linejoin:round;stroke-width:2px"/><path d="M517.26,459.72c0-1.47-19.26-70.59-19.26-70.59l-38.9,62.69Z" style="fill:#00a9e6;stroke:#00a9e6;stroke-linecap:round;stroke-linejoin:round;stroke-width:2px"/><polygon points="386.08 413.26 448.74 407.6 498 389.13 459.1 451.82 407.88 434.61 386.08 413.26" style="fill:#00a9e6;stroke:#00a9e6;stroke-linecap:round;stroke-linejoin:round;stroke-width:2px;opacity:0.5"/><polyline points="290.94 372.64 288.1 374.58 230.73 350.79 227.74 343.22" style="fill:none;stroke:#00a9e6;stroke-linecap:round;stroke-linejoin:round;stroke-width:2px"/><polygon points="338.57 375.31 369.82 411.24 314.18 385.36 338.57 375.31" style="fill:#00a9e6"/><polygon points="338.57 302.33 320.85 352.19 227.74 343.22 338.57 302.33" style="fill:#00a9e6;opacity:0.5"/><polygon points="317.77 255.08 253.68 272.05 288.69 326.42 317.77 255.08" style="fill:#00a9e6"/><polygon points="206.66 171.4 240.53 260.67 161.02 204.99 191.83 171.4 206.66 171.4" style="fill:#00a9e6"/><polygon points="120.09 155.91 145.09 178.58 126.81 194.25 161.02 204.99 188.55 174.98 120.09 155.91" style="fill:#00a9e6;opacity:0.30000000000000004"/><polygon points="708.17 318.14 687.27 293.88 683.7 306.01 708.17 318.14" style="fill:#00497f"/><polygon points="792.44 297.73 779.95 311.3 815.91 301.82 792.44 297.73" style="fill:#00a9e6"/><polyline points="744.24 353.77 723.84 372.62 671.02 374.64 708.17 318.14 687.27 293.88 757.54 321.57" style="fill:#00a9e6"/><polygon points="794.59 307.44 744.24 353.77 804.53 342.77 813.5 327.13 794.59 307.44" style="fill:#00a9e6;opacity:0.5"/><polygon points="224.87 305.04 216.55 330.31 227.74 343.22 279.72 328.89 224.87 305.04" style="fill:#00497f;stroke:#00497f;stroke-miterlimit:10"/><polygon points="77.22 154.4 128.25 158.19 145.09 178.58 125.1 196.29 72.56 161.71 77.22 154.4" style="fill:#00497f;stroke:#00497f;stroke-miterlimit:10"/><polygon points="418.95 372.63 448.37 406.57 371.55 413.72 418.95 372.63" style="fill:#00a9e6;opacity:0.30000000000000004"/><polygon points="210 182.94 222.34 212.72 325.74 258.61 210 182.94" style="fill:#00a9e6;opacity:0.5"/><path d="M583.91,499.26c-9.34,0-16.59-4-18.55-10.24-1.21-3.87-1.32-11.65,11.57-20.24,2.63-1.75,8.77-5.85,13.05-9.11l-.34.06c-45.39,7.54-132.79,11.51-209.16-46.26-17.25-2.56-78.69-25.75-102.46-45.84-35.94-2.86-50-17.72-54.37-24-6.26-9-7.65-19.7-4.12-31.86l.29-1,.75-.67a21.08,21.08,0,0,0,1.62-1.65c5.77-6.29,10.82-6.51,29.37,4.62,20,12,30.47,13.29,33.4,12.28-9.13-20.75-56.79-86-82.56-97.89-5.4-2.48-13.14-5.95-22.09-10-70.65-31.69-95.46-43.95-99.95-49.61-1.57-1.44-6.08-6.14-3.89-10.76,2.43-5.15,11.25-6,29.48-2.89l3.65.62c40.64,6.89,125.09,21.21,227.35,108.58l339,45.68a46.22,46.22,0,0,0,4.19-2.05c0-.61.06-1.2.09-1.76.27-5.52.45-9.17,3.2-11.27a6.89,6.89,0,0,1,5.91-1l.79.18c4,.9,5.48,1.23,18-.78,1.94-.31,4.5-.84,7.47-1.45,18.45-3.82,52.8-10.92,79.32,4.1l.38.25c.89.67,4,.88,6.27,1,5.42.37,13.59.93,14.68,8.55.08.53.21,1.16.35,1.86.94,4.69,2.69,13.43-3.44,22.23-7.8,11.18-25.47,18.79-54,23.26-15.75,3.4-29.32,12.81-40.34,28-5.07,7-29.44,36.5-56.84,64.18-35.71,36.07-61.77,54.51-77.46,54.81ZM595.11,452c2.51,0,4.85.64,5.79,3,1.61,4.08-1.77,7.37-20.08,19.58-6.55,4.36-9.83,9-8.78,12.32s6.09,5.47,12.37,5.34c32-.61,117.39-100.3,128.76-116.09,12.09-16.63,27.11-27,44.64-30.72l.19,0c26.26-4.1,42.9-11,49.47-20.37,4.42-6.34,3.15-12.66,2.32-16.84-.17-.85-.32-1.61-.42-2.25-.24-1.71-2.84-2.19-8.22-2.55-3.73-.26-7.25-.5-9.79-2.27-24.22-13.6-56.78-6.87-74.29-3.25-3.05.63-5.69,1.18-7.79,1.51-13.27,2.13-15.53,1.86-20.69.7l-.77-.18-.1,0a43.13,43.13,0,0,0-.5,5.76c-.05,1.05-.11,2.17-.18,3.38l0,.71-.32.63c-.41.83-1.18,2.37-8.89,5.58l-.88.36L334,270.1l-.79-.67C232,182.72,148.55,168.56,108.43,161.76l-3.67-.62c-15.75-2.7-20.49-1.55-21.73-1a10.34,10.34,0,0,0,2.24,2.75l.55.49.23.49c5,5.95,67.19,33.83,97.12,47.25,9,4,16.72,7.5,22.16,10,29.08,13.38,79.2,83.14,86.89,103.49l.39,1-.28,1.08a7.5,7.5,0,0,1-4.58,5.06c-7.05,2.87-21.55-1.76-39.79-12.7-8.33-5-13.88-7.58-17-7.9-1.61-.16-2,.21-3.65,2-.4.44-.85.92-1.35,1.42-2.59,9.64-1.45,18.05,3.39,25,8.05,11.55,26.85,19.45,50.29,21.12l1.17.08.89.78c22.2,19.5,85.59,43.39,100.5,45.05l1,.11.77.59c74.45,56.76,160.09,52.86,204.51,45.48l1.59-.26A31.1,31.1,0,0,1,595.11,452Zm85.78-145.43ZM86.13,164v0Zm-.14-.24" style="fill:#00497f"/></g><g style="clip-path:url(#clip-path-2)"><polygon points="361.9 266.77 365.53 262.14 330.28 236.2 328.29 309.69 338.57 296.56 338.57 266.77 361.9 266.77" style="fill:#00497f;stroke:#00497f;stroke-linecap:round;stroke-miterlimit:10;stroke-width:5px"/><polygon points="671.02 301.74 674.13 306.03 677.12 259.48 642.87 262.8 645.74 266.77 671.02 266.77 671.02 301.74" style="fill:#00497f;stroke:#00497f;stroke-linecap:round;stroke-miterlimit:10;stroke-width:5px"/><polygon points="679.12 384.51 677.12 347.93 671.02 351.06 671.02 375.31 623.68 375.31 608.95 382.85 679.12 384.51" style="fill:#00497f;stroke:#00497f;stroke-linecap:round;stroke-miterlimit:10;stroke-width:5px"/><path d="M338.57,355.81l-11.67-4.15,2.38,23.65,74.83,3.55c-1-.28-4.87-1.61-10.44-3.55h-55.1Z" style="fill:#00497f;stroke:#00497f;stroke-linecap:round;stroke-miterlimit:10;stroke-width:5px"/></g><path d="M481.58,308v-.19q0-5.52-3.67-8.37t-10.34-2.86h-17.3v22.74h17.4q6.38,0,10.14-3A10.05,10.05,0,0,0,481.58,308Z" style="fill:#00497f"/><path d="M550.22,303.07a21.47,21.47,0,0,0-7.37-4.79,25.64,25.64,0,0,0-9.63-1.75h-13.3v46.05h13.3a26.24,26.24,0,0,0,9.63-1.69,21.07,21.07,0,0,0,7.37-4.74,21.4,21.4,0,0,0,4.72-7.26,24.4,24.4,0,0,0,1.69-9.14v-.19a24.82,24.82,0,0,0-1.69-9.19A21.29,21.29,0,0,0,550.22,303.07Z" style="fill:#00497f"/><path d="M645.74,266.77H361.9l-23.33,29.79v59.25c15,5.33,40.65,14.45,55.1,19.5h230L671,351.06V301.74ZM426.09,353.28h-47.2V285.84h11.75v56.74h35.45Zm55.68,0-16.62-23.51H450.27v23.51H438.52V285.84h30.06a33.16,33.16,0,0,1,11.27,1.78,22.78,22.78,0,0,1,8.19,5,19.69,19.69,0,0,1,4.14,6.46,21.93,21.93,0,0,1,1.44,8.09v.19a21.88,21.88,0,0,1-1.2,7.47,19.46,19.46,0,0,1-3.32,5.88A20.15,20.15,0,0,1,484,325a25,25,0,0,1-6.5,2.75l18.2,25.53Zm87.38-33.72a33.91,33.91,0,0,1-2.6,13.29,31.53,31.53,0,0,1-7.37,10.7,35,35,0,0,1-11.37,7.13,39.28,39.28,0,0,1-14.5,2.6H508.17V285.84h25.14a39.9,39.9,0,0,1,14.5,2.55,34.52,34.52,0,0,1,11.37,7.08,31.62,31.62,0,0,1,7.37,10.65,33.57,33.57,0,0,1,2.6,13.25Zm64.74,33.72H583.5V285.84h49.91v10.69H595.26v17.34h33.81v10.7H595.26v18h38.63Z" style="fill:#00497f"/></g></svg>